<?xml version="1.0" encoding="utf-8"?>
<!-- Generator: Adobe Illustrator 16.0.0, SVG Export Plug-In . SVG Version: 6.00 Build 0)  -->
<!DOCTYPE svg PUBLIC "-//W3C//DTD SVG 1.1//EN" "http://www.w3.org/Graphics/SVG/1.1/DTD/svg11.dtd">
<svg version="1.1" id="Layer_1" xmlns="http://www.w3.org/2000/svg" xmlns:xlink="http://www.w3.org/1999/xlink" x="0px" y="0px"
	 width="131.5035px" height="131.50275px" viewBox="0 0 526.014 526.011" enable-background="new 0 0 526.014 526.011"
	 xml:space="preserve">
<g display="none">
	<path display="inline" fill-rule="evenodd" clip-rule="evenodd" fill="#AFABAA" d="M190.494,474.953
		c-0.316,2.31-1.781,1.116-2.805,0.814c-6.831-2.021-13.395-4.771-19.843-7.746c-26.526-12.235-50.291-28.478-70.721-49.433
		c-20.649-21.183-34.944-46.28-45.214-73.838c-4.693-12.591-8.777-25.355-11.319-38.564c-0.259-1.349-2.233-3.539,0.923-4.061
		c2.396-0.398,2.585,1.491,3.01,3.307c8.113,34.725,21.565,67.123,43.754,95.269c26.074,33.071,58.18,58.229,98.622,71.748
		C188.284,472.913,190.231,472.743,190.494,474.953z"/>
	<path display="inline" fill-rule="evenodd" clip-rule="evenodd" fill="#AFABAA" d="M482.049,266.76c0,3.024,0.108,7.14-0.05,11.246
		c-0.07,1.878,0.54,4.775-2.403,4.799c-3.389,0.026-2.075-3.021-1.994-4.737c1.187-25.243-1.561-50.097-7.974-74.475
		c-8.534-32.445-24.178-61.256-45.824-86.831c-11.911-14.071-25.278-26.515-40.96-36.34c-1.167-0.73-2.99-1.341-1.751-3.13
		c1.372-1.978,2.554,0.136,3.478,0.738c16.501,10.817,30.854,24.139,43.819,38.886c17.992,20.469,32.298,43.29,41.188,69.19
		c6.737,19.634,10.407,39.921,11.768,60.652C481.759,253.063,482.266,259.354,482.049,266.76z"/>
</g>
<g id="Ferrari_x5F_Wheel.psd">
	<defs>
		<rect id="SVGID_1_" x="0.001" y="-0.003" width="526.011" height="526.015"/>
	</defs>
	<clipPath id="SVGID_2_">
		<use xlink:href="#SVGID_1_"  overflow="visible"/>
	</clipPath>
	<g id="Ellipse_7_copy_16" clip-path="url(#SVGID_2_)">
		<g>
			<path fill-rule="evenodd" clip-rule="evenodd" d="M261.581,16.139c-137.126,0-248.289,111.163-248.289,248.289
				c0,137.128,111.163,248.292,248.289,248.292c137.13,0,248.289-111.164,248.289-248.292
				C509.87,127.302,398.711,16.139,261.581,16.139z M261.581,461.87c-109.043,0-197.438-88.398-197.438-197.442
				S152.538,66.985,261.581,66.985c109.046,0,197.446,88.398,197.446,197.442S370.627,461.87,261.581,461.87z"/>
		</g>
	</g>
	<g id="Ellipse_7_copy_15" clip-path="url(#SVGID_2_)">
		<g>
			<path fill-rule="evenodd" clip-rule="evenodd" fill="#1F1F20" d="M261.581,32.32c-128.189,0-232.109,103.918-232.109,232.107
				c0,128.19,103.92,232.109,232.109,232.109S493.69,392.618,493.69,264.428C493.69,136.238,389.771,32.32,261.581,32.32z
				 M261.581,449.003c-101.934,0-184.573-82.638-184.573-184.575s82.64-184.573,184.573-184.573
				c101.941,0,184.577,82.636,184.577,184.573S363.522,449.003,261.581,449.003z"/>
		</g>
	</g>
	<g id="Ellipse_7_copy_8" clip-path="url(#SVGID_2_)">
		<g>
			<path fill-rule="evenodd" clip-rule="evenodd" fill="#545862" d="M261.581,73.785c-105.287,0-190.639,85.354-190.639,190.643
				S156.294,455.07,261.581,455.07c105.291,0,190.643-85.354,190.643-190.643S366.872,73.785,261.581,73.785z M261.581,437.878
				c-95.791,0-173.446-77.655-173.446-173.45c0-95.792,77.655-173.448,173.446-173.448c95.795,0,173.45,77.656,173.45,173.448
				C435.031,360.223,357.376,437.878,261.581,437.878z"/>
		</g>
	</g>
	<g id="Ellipse_7_copy_7" clip-path="url(#SVGID_2_)">
		<g>
			<path fill-rule="evenodd" clip-rule="evenodd" d="M262.087,69.74c-107.802,0-195.193,87.392-195.193,195.194
				s87.392,195.194,195.193,195.194c107.803,0,195.194-87.392,195.194-195.194S369.89,69.74,262.087,69.74z M263.1,452.038
				c-102.776,0-186.092-83.318-186.092-186.092c0-102.776,83.315-186.092,186.092-186.092c102.775,0,186.091,83.316,186.091,186.092
				C449.19,368.72,365.875,452.038,263.1,452.038z"/>
		</g>
	</g>
	<g id="Ellipse_7_copy_5" clip-path="url(#SVGID_2_)">
		<g>
			<path fill-rule="evenodd" clip-rule="evenodd" fill="#929AAB" d="M262.087,53.558c-116.738,0-211.374,94.637-211.374,211.376
				c0,116.74,94.636,211.375,211.374,211.375c116.742,0,211.378-94.635,211.378-211.375
				C473.465,148.195,378.829,53.558,262.087,53.558z M372.285,109.356c48.231,36.143,66.795,85.63,66.795,85.63l-115.042,18.906
				c0,0-11.784-0.825-18.947-6.187c-7.162-5.363-14.047-17.869-14.047-17.869l-14.816-114.33
				C276.228,75.506,325.131,74.024,372.285,109.356z M149.089,114.006c48.961-35.185,101.883-38.194,101.883-38.194l-16.103,115.042
				c0,0-4.293,10.966-11.56,16.194c-7.271,5.229-21.296,8.072-21.296,8.072L88.1,195.366
				C88.1,195.366,101.224,148.404,149.089,114.006z M82.228,326.74c-18.302-57.373-4.675-108.565-4.675-108.565l104.727,50.835
				c0,0,9.126,7.466,11.846,15.983c2.72,8.517,1.063,22.717,1.063,22.717l-54.355,102.092
				C140.832,409.802,100.119,382.828,82.228,326.74z M264.996,455.044c-60.354-0.317-104.87-29.091-104.87-29.091l81.071-83.889
				c0,0,9.952-6.369,18.916-6.327c8.963,0.042,21.971,6.006,21.971,6.006l80.303,83.228
				C362.387,424.972,324.003,455.354,264.996,455.044z M385.548,409.651l-54.51-103.284c0,0-2.947-11.449-0.093-19.939
				c2.852-8.492,12.618-18.964,12.618-18.964l104.519-50.063c0,0,16.91,45.969-1.904,101.866
				C426.938,376.445,385.548,409.651,385.548,409.651z"/>
		</g>
	</g>
	<g id="Shape_47_copy_2" clip-path="url(#SVGID_2_)">
		<g>
			<path fill="#686E7A" d="M327.816,283.316c1.479-8.096,13.063-17.249,13.063-17.249l104.851-53.034l-1.017-2.019l-104.862,51.011
				l-16.207-10.045c0,0-27.283-0.894-34.269,20.374c-5.285,16.105,9.218,29.291,14.287,33.315
				c5.068,4.024,20.221,2.948,20.221,2.948l54.997,103.938l3.018-3.046l-53.98-101.92
				C327.917,307.59,326.333,291.414,327.816,283.316z"/>
		</g>
	</g>
	<g id="Shape_47" clip-path="url(#SVGID_2_)">
		<g>
			<path fill="#686E7A" d="M234.78,274.036c-7.078-21.239-34.385-20.227-34.385-20.227l-16.185,10.113L79.032,213.354l-1.013,2.023
				l105.184,52.591c0,0,11.629,9.103,13.147,17.192c1.514,8.092,0,24.274,0,24.274l-53.603,102.146l3.033,3.035l54.614-104.171
				c0,0,15.172,1.013,20.225-3.035C225.678,303.366,240.143,290.12,234.78,274.036z"/>
		</g>
	</g>
	<g id="Shape_47_copy_3" clip-path="url(#SVGID_2_)">
		<g>
			<path fill="#686E7A" d="M438.713,198.749l-113.856,18.386c0,0-15.828-3.696-23.019-7.7c-7.193-4.003-12.139-17.909-12.139-17.909
				L273.148,75.195l-2.237,0.317l14.631,115.689l-14.72,12.124c0,0-9.612,25.549,8.287,38.994
				c13.553,10.18,30.699,0.678,36.135-2.83c5.44-3.506,9.288-18.201,9.288-18.201l116.097-18.701L438.713,198.749z"/>
		</g>
	</g>
	<g id="Shape_47_copy" clip-path="url(#SVGID_2_)">
		<g>
			<path fill="#686E7A" d="M285.322,336.945c0,0,5.556-14.154,3.229-20.196c-2.326-6.044-10.574-23.84-27.527-23.596
				c-22.385,0.319-29.683,26.652-29.683,26.652l4.74,18.483l-80.027,84.946l1.622,1.576l81.956-84.333c0,0,12.196-8.33,20.364-7.327
				c8.171,1.002,23.135,7.346,23.135,7.346l81.136,82.002l3.81-1.973L285.322,336.945z"/>
		</g>
	</g>
	<g id="Shape_47_copy_4" clip-path="url(#SVGID_2_)">
		<g>
			<path fill="#686E7A" d="M255.693,204.801c-1.847-6.203-14.883-14.005-14.883-14.005l14.508-116.694l-4.223,0.767l-14.179,114.457
				c0,0-7.975,14.161-13.832,19.949c-5.853,5.786-20.588,6.647-20.588,6.647L86.18,199.284l-0.324,2.237l115.17,18.301l7.521,17.522
				c0,0,21.845,16.372,39.755,2.944C261.867,230.122,257.54,211.004,255.693,204.801z"/>
		</g>
	</g>
	<g id="Ellipse_7_copy_6" clip-path="url(#SVGID_2_)">
		<g>
			<path d="M261.581,244.707c-10.892,0-19.719,8.83-19.719,19.721c0,10.893,8.827,19.723,19.719,19.723
				c10.895,0,19.723-8.83,19.723-19.723C281.304,253.537,272.476,244.707,261.581,244.707z"/>
		</g>
	</g>
	<g id="Ellipse_8" clip-path="url(#SVGID_2_)">
		<g>
			<circle fill="#888482" cx="235.792" cy="228.525" r="9.102"/>
		</g>
	</g>
	<g id="Ellipse_7_copy_9" clip-path="url(#SVGID_2_)">
		<g>
			<path fill-rule="evenodd" clip-rule="evenodd" d="M235.792,215.377c-7.259,0-13.147,5.886-13.147,13.147
				c0,7.262,5.889,13.147,13.147,13.147c7.26,0,13.147-5.886,13.147-13.147C248.939,221.263,243.052,215.377,235.792,215.377z
				 M235.792,239.649c-6.143,0-11.123-4.98-11.123-11.125c0-6.143,4.98-11.125,11.123-11.125c6.147,0,11.127,4.982,11.127,11.125
				C246.919,234.669,241.939,239.649,235.792,239.649z"/>
		</g>
	</g>
	<g id="Ellipse_8_copy" clip-path="url(#SVGID_2_)">
		<g>
			<path fill="#888482" d="M220.62,267.969c-5.026,0-9.102,4.074-9.102,9.103c0,5.026,4.075,9.102,9.102,9.102
				c5.03,0,9.103-4.076,9.103-9.102C229.723,272.043,225.65,267.969,220.62,267.969z"/>
		</g>
	</g>
	<g id="Ellipse_7_copy_10" clip-path="url(#SVGID_2_)">
		<g>
			<path fill-rule="evenodd" clip-rule="evenodd" d="M220.62,263.922c-7.259,0-13.147,5.888-13.147,13.149
				c0,7.261,5.889,13.147,13.147,13.147c7.264,0,13.151-5.886,13.151-13.147C233.771,269.81,227.884,263.922,220.62,263.922z
				 M220.62,288.196c-6.143,0-11.122-4.982-11.122-11.125c0-6.145,4.979-11.125,11.122-11.125c6.147,0,11.127,4.98,11.127,11.125
				C231.747,283.214,226.768,288.196,220.62,288.196z"/>
		</g>
	</g>
	<g id="Ellipse_8_copy_2" clip-path="url(#SVGID_2_)">
		<g>
			<path fill="#888482" d="M261.079,299.321c-5.03,0-9.103,4.076-9.103,9.102s4.072,9.103,9.103,9.103
				c5.022,0,9.102-4.076,9.102-9.103S266.102,299.321,261.079,299.321z"/>
		</g>
	</g>
	<g id="Ellipse_7_copy_11" clip-path="url(#SVGID_2_)">
		<g>
			<path fill-rule="evenodd" clip-rule="evenodd" d="M261.079,295.275c-7.264,0-13.151,5.886-13.151,13.147
				c0,7.262,5.888,13.147,13.151,13.147c7.259,0,13.144-5.886,13.144-13.147C274.223,301.162,268.338,295.275,261.079,295.275z
				 M261.079,319.548c-6.147,0-11.127-4.98-11.127-11.125c0-6.145,4.979-11.125,11.127-11.125c6.143,0,11.122,4.98,11.122,11.125
				C272.201,314.568,267.222,319.548,261.079,319.548z"/>
		</g>
	</g>
	<g id="Ellipse_8_copy_3" clip-path="url(#SVGID_2_)">
		<g>
			<path fill="#888482" d="M302.541,268.979c-5.026,0-9.102,4.076-9.102,9.102c0,5.028,4.075,9.103,9.102,9.103
				c5.03,0,9.103-4.074,9.103-9.103C311.644,273.055,307.571,268.979,302.541,268.979z"/>
		</g>
	</g>
	<g id="Ellipse_7_copy_12" clip-path="url(#SVGID_2_)">
		<g>
			<path fill-rule="evenodd" clip-rule="evenodd" d="M302.541,264.934c-7.259,0-13.147,5.886-13.147,13.147
				c0,7.262,5.889,13.147,13.147,13.147c7.264,0,13.151-5.886,13.151-13.147C315.692,270.82,309.805,264.934,302.541,264.934z
				 M302.541,289.206c-6.143,0-11.122-4.98-11.122-11.125c0-6.143,4.979-11.125,11.122-11.125c6.144,0,11.127,4.982,11.127,11.125
				C313.668,284.226,308.685,289.206,302.541,289.206z"/>
		</g>
	</g>
	<g id="Ellipse_8_copy_4" clip-path="url(#SVGID_2_)">
		<g>
			<path fill="#888482" d="M287.373,219.422c-5.03,0-9.102,4.076-9.102,9.102c0,5.028,4.071,9.103,9.102,9.103
				c5.026,0,9.103-4.074,9.103-9.103C296.476,223.498,292.399,219.422,287.373,219.422z"/>
		</g>
	</g>
	<g id="Ellipse_7_copy_13" clip-path="url(#SVGID_2_)">
		<g>
			<path fill-rule="evenodd" clip-rule="evenodd" d="M287.373,215.377c-7.263,0-13.15,5.886-13.15,13.147
				c0,7.262,5.888,13.147,13.15,13.147c7.26,0,13.147-5.886,13.147-13.147C300.521,221.263,294.633,215.377,287.373,215.377z
				 M287.373,239.649c-6.143,0-11.126-4.98-11.126-11.125c0-6.143,4.983-11.125,11.126-11.125c6.144,0,11.123,4.982,11.123,11.125
				C298.496,234.669,293.517,239.649,287.373,239.649z"/>
		</g>
	</g>
	<g id="Ellipse_7_copy_14" clip-path="url(#SVGID_2_)">
		<g>
			<path fill-rule="evenodd" clip-rule="evenodd" fill="#C9DCFF" d="M262.087,61.65c-112.269,0-203.284,91.014-203.284,203.284
				c0,112.27,91.016,203.286,203.284,203.286c112.272,0,203.284-91.016,203.284-203.286
				C465.371,152.664,374.359,61.65,262.087,61.65z M262.593,462.15c-108.641,0-196.712-88.07-196.712-196.71
				S153.952,68.73,262.593,68.73s196.713,88.069,196.713,196.71S371.233,462.15,262.593,462.15z"/>
		</g>
	</g>
</g>
</svg>
